<?xml version="1.0" standalone="no"?>
<!DOCTYPE svg PUBLIC "-//W3C//DTD SVG 20010904//EN"
 "http://www.w3.org/TR/2001/REC-SVG-20010904/DTD/svg10.dtd">
<svg version="1.0" xmlns="http://www.w3.org/2000/svg"
 width="500.000000pt" height="500.000000pt" viewBox="0 0 500.000000 500.000000"
 preserveAspectRatio="xMidYMid meet">

<g transform="translate(0.000000,500.000000) scale(0.100000,-0.100000)"
fill="#000000" stroke="none">
<path d="M0 2500 l0 -2500 2500 0 2500 0 0 2500 0 2500 -2500 0 -2500 0 0
-2500z m3600 650 c153 -13 264 -35 380 -73 87 -29 105 -32 215 -31 108 1 137
6 298 48 218 56 249 58 231 12 -7 -19 -21 -23 -274 -87 -273 -70 -310 -70
-560 -7 -230 58 -301 68 -495 68 -224 0 -363 -30 -604 -129 -40 -17 -103 -36
-140 -42 -53 -9 -73 -18 -101 -45 -40 -38 -149 -82 -274 -109 -139 -31 -382
-6 -706 72 -187 45 -201 47 -340 47 -139 0 -149 -1 -235 -33 -113 -42 -169
-70 -228 -115 -26 -20 -67 -51 -92 -70 -61 -47 -149 -80 -176 -65 -14 7 -19
18 -17 37 2 22 11 29 48 40 65 20 83 30 147 84 113 96 335 183 506 198 118 10
187 1 367 -46 284 -74 362 -87 535 -88 151 -1 165 1 248 28 48 16 106 43 129
60 74 56 90 64 149 75 32 5 121 34 197 64 125 50 297 100 377 110 63 8 305 6
415 -3z m12 -174 c78 -11 118 -24 205 -64 147 -68 178 -75 318 -74 158 1 313
41 481 124 64 32 98 32 92 1 -4 -24 -82 -69 -217 -127 -143 -61 -244 -80 -376
-73 -121 7 -182 23 -341 87 -67 27 -152 54 -189 61 -152 26 -373 -8 -544 -86
-42 -18 -127 -48 -189 -65 -62 -17 -154 -51 -205 -76 -159 -76 -392 -121 -567
-108 -122 8 -305 40 -402 69 -360 108 -497 119 -653 52 -101 -44 -272 -145
-355 -210 -109 -86 -183 -126 -207 -111 -31 19 -27 44 15 82 55 51 302 203
425 263 139 67 206 83 347 82 102 0 129 -4 240 -37 69 -20 186 -53 260 -73
l135 -37 225 0 c246 -1 324 10 443 60 351 148 612 236 797 267 54 9 170 6 262
-7z m1132 -282 c30 -11 18 -51 -26 -89 -55 -46 -245 -167 -368 -233 -117 -62
-197 -90 -303 -103 -111 -14 -209 0 -402 56 -262 76 -312 85 -506 92 -264 9
-358 -8 -588 -106 -183 -79 -498 -184 -631 -211 -86 -18 -126 -21 -220 -17
-140 7 -200 22 -340 87 -134 63 -221 77 -374 59 -118 -13 -292 -65 -387 -117
-70 -37 -99 -37 -99 -2 0 17 26 34 143 90 163 79 229 98 377 106 131 8 239
-14 391 -79 150 -64 235 -81 378 -74 133 6 219 27 373 91 57 23 144 53 193 65
50 12 142 46 205 76 121 56 183 76 290 94 233 38 448 16 760 -79 172 -53 228
-63 350 -64 83 -1 120 4 175 21 88 28 295 143 386 214 68 53 186 129 200 129
4 0 14 -3 23 -6z m-33 -214 c44 -24 14 -74 -51 -85 -29 -5 -64 -26 -121 -71
-183 -145 -443 -224 -668 -202 -42 4 -158 28 -257 53 -239 62 -314 75 -474 82
-104 4 -149 2 -195 -10 -104 -27 -173 -57 -222 -97 -37 -31 -63 -43 -123 -56
-41 -9 -131 -39 -199 -67 -198 -79 -329 -109 -501 -114 -255 -9 -478 18 -675
80 -89 29 -112 32 -215 31 -103 -1 -134 -5 -296 -47 -202 -53 -234 -56 -234
-28 0 10 6 23 13 28 16 13 403 110 498 124 87 14 158 3 375 -56 168 -46 280
-58 491 -53 208 5 300 25 511 109 70 28 158 57 196 64 50 10 75 20 93 39 32
35 60 48 178 85 129 41 190 46 360 32 146 -13 221 -26 470 -86 213 -51 354
-57 485 -22 133 35 231 84 328 161 46 36 84 66 85 66 1 0 29 11 62 25 71 29
62 27 86 15z"/>
</g>
</svg>
