<?xml version="1.0" standalone="no"?>
<!DOCTYPE svg PUBLIC "-//W3C//DTD SVG 20010904//EN"
 "http://www.w3.org/TR/2001/REC-SVG-20010904/DTD/svg10.dtd">
<svg version="1.0" xmlns="http://www.w3.org/2000/svg"
 width="500.000000pt" height="500.000000pt" viewBox="0 0 500.000000 500.000000"
 preserveAspectRatio="xMidYMid meet">

<g transform="translate(0.000000,500.000000) scale(0.100000,-0.100000)"
fill="#000000" stroke="none">
<path d="M0 2500 l0 -2500 2500 0 2500 0 0 2500 0 2500 -2500 0 -2500 0 0
-2500z m3566 1080 c156 -12 313 -42 414 -78 68 -25 87 -27 210 -26 127 1 145
4 312 47 97 26 186 47 198 47 26 0 37 -27 19 -45 -23 -22 -443 -125 -539 -132
-79 -5 -99 -2 -292 46 -241 60 -379 76 -573 68 -165 -8 -262 -30 -458 -106
-86 -33 -185 -65 -219 -71 -45 -7 -68 -16 -85 -35 -34 -36 -103 -68 -218 -100
-96 -27 -105 -28 -255 -21 -175 7 -262 20 -493 76 -293 70 -390 74 -560 25
-120 -35 -188 -69 -282 -140 -97 -74 -138 -99 -187 -115 -48 -15 -78 -6 -78
24 0 29 14 41 65 55 45 12 68 26 140 87 64 54 165 105 285 144 197 64 332 64
584 0 88 -23 162 -43 166 -45 15 -9 270 -44 365 -49 88 -6 111 -3 192 18 97
27 156 54 234 110 29 20 64 35 93 39 25 4 110 32 188 62 297 117 453 140 774
115z m88 -185 c37 -8 116 -37 175 -64 115 -54 190 -71 308 -71 133 0 332 53
474 126 56 29 72 34 84 24 28 -24 15 -40 -67 -81 -217 -110 -320 -140 -478
-140 -120 -1 -200 17 -370 86 -211 85 -348 95 -555 40 -55 -14 -134 -41 -175
-60 -41 -19 -127 -48 -190 -65 -63 -17 -153 -49 -199 -72 -173 -82 -271 -106
-461 -115 -205 -9 -351 16 -670 113 -119 36 -132 38 -270 38 -115 1 -156 -3
-200 -17 -74 -25 -300 -150 -363 -202 -91 -73 -191 -135 -219 -135 -38 0 -47
34 -16 67 53 57 294 208 450 283 127 61 209 80 344 80 85 0 120 -5 225 -35
422 -119 541 -137 757 -117 153 14 266 40 358 83 235 107 523 203 739 245 80
15 214 11 319 -11z m-320 -511 c9 -8 16 -23 16 -32 0 -9 -18 -105 -41 -215
-35 -171 -39 -203 -28 -223 7 -13 9 -27 5 -31 -8 -8 -120 -22 -183 -22 -32 -1
-43 3 -43 14 0 8 4 15 9 15 15 0 29 50 66 238 35 176 36 185 19 203 -14 15
-15 22 -5 32 35 35 157 49 185 21z m1097 -53 c25 -25 29 -37 29 -83 0 -98 -87
-225 -185 -269 -70 -32 -205 -17 -205 23 0 7 -12 0 -27 -14 -41 -38 -66 -48
-118 -48 -35 0 -51 6 -70 25 -30 29 -32 72 -11 185 13 65 13 77 0 91 -21 23
-17 37 16 54 48 25 116 22 145 -5 29 -27 31 -51 10 -150 -15 -73 -14 -90 9
-90 24 0 37 27 53 114 15 80 14 88 -1 105 -15 17 -15 20 -2 34 41 41 136 45
171 7 21 -24 22 -64 0 -168 -9 -45 -13 -86 -10 -92 18 -29 81 17 110 80 18 39
18 43 2 51 -48 27 -61 116 -22 154 33 33 70 32 106 -4z m-1322 -19 c12 -22 -4
-111 -23 -131 -24 -23 -63 -6 -76 34 -11 34 -13 35 -60 35 -53 0 -53 0 -65
-75 -3 -22 -8 -48 -11 -57 -9 -29 29 -22 61 12 31 32 62 39 71 15 3 -8 1 -46
-6 -85 -15 -90 -37 -106 -79 -61 -31 33 -56 40 -64 18 -3 -8 -8 -38 -12 -68
-5 -44 -4 -58 9 -68 20 -17 21 -37 2 -44 -8 -3 -64 -9 -125 -13 -120 -7 -132
-2 -92 40 29 31 88 349 72 391 -6 16 -7 32 -3 36 8 8 255 36 339 38 41 1 54
-3 62 -17z m622 -55 c42 -28 59 -60 59 -112 0 -73 -19 -117 -74 -171 -60 -58
-117 -79 -212 -78 -106 1 -154 47 -154 145 0 61 21 114 63 157 57 60 110 80
213 81 58 1 77 -3 105 -22z m-1270 -116 c51 -51 31 -124 -38 -137 -28 -6 -37
-2 -60 25 -15 17 -33 31 -40 31 -13 0 -15 -4 -38 -118 -19 -92 -19 -118 0
-126 16 -6 21 -36 5 -36 -5 0 -55 -5 -110 -11 -124 -13 -139 -10 -111 28 13
17 30 75 45 146 21 107 22 120 8 134 -21 20 -6 43 39 59 50 18 109 17 131 -3
17 -15 20 -15 41 4 45 42 89 43 128 4z m-1335 -9 c69 -46 4 -168 -72 -134 -23
11 -27 8 -70 -60 -54 -84 -60 -97 -74 -167 -10 -50 -9 -56 12 -78 13 -14 18
-27 12 -32 -8 -9 -172 -31 -224 -31 -25 0 -26 27 -1 54 10 12 24 49 30 82 l12
62 -49 104 c-27 58 -59 112 -72 121 -39 27 -19 44 62 51 40 4 95 10 122 13
l48 6 -7 -41 c-5 -30 -1 -56 16 -101 12 -34 23 -61 24 -61 2 0 25 39 52 86 26
48 61 97 76 110 28 24 80 32 103 16z m889 -8 c32 -13 34 -46 10 -164 -24 -118
-24 -140 1 -119 27 22 16 -40 -12 -66 -46 -43 -139 -45 -168 -4 -14 20 -14 20
-41 -5 -66 -61 -177 -53 -205 14 -9 23 -8 48 9 131 20 97 20 103 4 122 -17 18
-17 20 5 37 55 45 173 44 185 -2 3 -12 -3 -64 -14 -116 -10 -51 -16 -98 -13
-103 7 -12 41 -12 49 1 3 5 14 49 25 97 17 80 18 89 3 105 -23 26 -9 45 44 62
53 16 93 19 118 10z m-530 -68 c107 -45 96 -235 -18 -317 -111 -80 -287 -75
-331 10 -39 74 -9 191 65 255 70 60 205 85 284 52z m3259 -142 c30 -11 18 -51
-26 -89 -55 -46 -245 -167 -368 -233 -117 -62 -197 -90 -303 -103 -111 -14
-209 0 -402 56 -262 76 -312 85 -506 92 -264 9 -358 -8 -588 -106 -183 -79
-498 -184 -631 -211 -86 -18 -126 -21 -220 -17 -140 7 -200 22 -340 87 -134
63 -221 77 -374 59 -118 -13 -292 -65 -387 -117 -70 -37 -99 -37 -99 -2 0 17
26 34 143 90 163 79 229 98 377 106 131 8 239 -14 391 -79 150 -64 235 -81
378 -74 133 6 219 27 373 91 57 23 144 53 193 65 50 12 142 46 205 76 121 56
183 76 290 94 233 38 448 16 760 -79 172 -53 228 -63 350 -64 83 -1 120 4 175
21 88 28 295 143 386 214 68 53 186 129 200 129 4 0 14 -3 23 -6z m-33 -214
c44 -24 14 -74 -51 -85 -29 -5 -64 -26 -121 -71 -183 -145 -443 -224 -668
-202 -42 4 -158 28 -257 53 -239 62 -314 75 -474 82 -104 4 -149 2 -195 -10
-104 -27 -173 -57 -222 -97 -37 -31 -63 -43 -123 -56 -41 -9 -131 -39 -199
-67 -198 -79 -329 -109 -501 -114 -255 -9 -478 18 -675 80 -89 29 -112 32
-215 31 -103 -1 -134 -5 -296 -47 -202 -53 -234 -56 -234 -28 0 10 6 23 13 28
16 13 403 110 498 124 87 14 158 3 375 -56 168 -46 280 -58 491 -53 208 5 300
25 511 109 70 28 158 57 196 64 50 10 75 20 93 39 32 35 60 48 178 85 129 41
190 46 360 32 146 -13 221 -26 470 -86 213 -51 354 -57 485 -22 133 35 231 84
328 161 46 36 84 66 85 66 1 0 29 11 62 25 71 29 62 27 86 15z"/>
<path d="M3559 2676 c-22 -50 -45 -185 -36 -210 19 -49 59 17 82 135 10 48 15
95 11 104 -11 29 -37 15 -57 -29z"/>
<path d="M1335 2480 c-17 -33 -45 -157 -45 -200 0 -37 16 -47 40 -25 16 14 35
78 55 182 13 68 -21 98 -50 43z"/>
</g>
</svg>
